<?xml version="1.0" standalone="no"?><!DOCTYPE svg PUBLIC "-//W3C//DTD SVG 1.1//EN" "http://www.w3.org/Graphics/SVG/1.1/DTD/svg11.dtd"><svg t="1687315004745" class="icon" viewBox="0 0 1024 1024" version="1.1" xmlns="http://www.w3.org/2000/svg" p-id="1567" xmlns:xlink="http://www.w3.org/1999/xlink" width="200" height="200"><path d="M303.36 162.56v488.128h294.016a138.688 138.688 0 0 1 131.2 183.68 210.688 210.688 0 0 0 107.328-183.68V162.56H303.36zM597.376 928H209.088a138.688 138.688 0 1 1 0-277.312H236.8v-499.2c0-30.656 24.832-55.488 55.488-55.488h554.688c30.656 0 55.488 24.832 55.488 55.488v499.2A277.312 277.312 0 0 1 625.088 928h-27.712z m72.128-138.688a72.128 72.128 0 1 0-144.256 0 72.128 72.128 0 0 0 144.192 0z m-210.816 0c0-26.368 7.36-51.072 20.224-72.064H209.088a72.128 72.128 0 1 0 0 144.192h269.824a138.048 138.048 0 0 1-20.224-72.128zM369.984 317.76a33.28 33.28 0 0 1 33.28-33.28h332.8a33.28 33.28 0 1 1 0 66.56h-332.8a33.28 33.28 0 0 1-33.28-33.28z m0 166.592a33.28 33.28 0 0 1 33.28-33.28h221.888a33.28 33.28 0 1 1 0 66.56H403.2a33.28 33.28 0 0 1-33.28-33.28z" fill="#5A5A5A" p-id="1568"></path></svg>